{"title":"We Are What We Are 2013 BRRip 480p x264 AAC - VYTO [P2PDL]","uid":9083031,"size":372487238,"categoryP":"video","categoryS":"movies","magnet":"?xt=urn:btih:65f6a44247a3efb92c39ae8725486b6098decee9&amp;dn=We+Are+What+We+Are+2013+BRRip+480p+x264+AAC+-+VYTO+%5BP2PDL%5D&amp;tr=udp%3A%2F%2Ftracker.openbittorrent.com%3A80&amp;tr=udp%3A%2F%2Fopen.demonii.com%3A1337&amp;tr=udp%3A%2F%2Ftracker.coppersurfer.tk%3A6969&amp;tr=udp%3A%2F%2Fexodus.desync.com%3A6969","seeders":1,"leechers":0,"uploader":"ValidusVyto","files":-1,"time":1382413117,"description":"_______ Visit us at our Semi Public Bittorrent Community ________\n  &lt;a href=&quot;\nhttp://p2pdl.com&quot; rel=&quot;nofollow&quot; target=&quot;_NEW&quot;&gt;\nhttp://p2pdl.com&lt;/a&gt;  _____________________________ &lt;a href=&quot; http://p2pdl.com&quot; rel=&quot;nofollow&quot; target=&quot;_NEW&quot;&gt; http://p2pdl.com&lt;/a&gt;\n\n\n\nWe Are What We Are 2013 BRRip 480p x264 AAC - VYTO\n\n\nGenre: Drama | Horror | Thriller \nPlot: The Parkers, a reclusive family who follow ancient customs, find their secret\nexistence threatened as a torrential downpour moves into their area, forcing daughters\nIris and Rose to assume responsibilities beyond those of a typical family.   \nDirector: Jim Mickle\nStars: Bill Sage, Ambyr Childers, Julia Garner.\nRated: R for disturbing violence, bloody images, some sexuality, nudity and language.\n\n\nIMDb: &lt;a href=&quot;\nhttp://www.imdb.com/title/tt2309021/&quot; rel=&quot;nofollow&quot; target=&quot;_NEW&quot;&gt;\nhttp://www.imdb.com/title/tt2309021/&lt;/a&gt;\n\nTrailer:\n\n\nFormat                         : MPEG-4\nFile size                      : 351 MiB\nDuration                       : 1h 45mn\nOverall bit rate               : 467 Kbps\n\nVideo\nFormat                         : AVC\nBit rate                       : 424 Kbps\nWidth                          : 720 pixels\nHeight                         : 304 pixels\nDisplay aspect ratio           : 2.35:1\nFrame rate mode                : Constant\nFrame rate                     : 23.976 fps\nBit depth                      : 10 bits\nStream size                    : 319 MiB (91%)\nWriting library                : x264 core 138 r2358\n\nAudio\nFormat                         : AAC\nBit rate mode                  : Variable\nBit rate                       : 40.0 Kbps\nChannel(s)                     : 2 channels\nChannel positions              : Front: L R\nSampling rate                  : 48.0 KHz\nStream size                    : 30.1 MiB (9%)\nLanguage                       : English\n\nSubtitle                       : N/a\n\nSource                         : 720p.BluRay.DTS.x264-PublicHD\n &lt;a href=&quot;\nhttp://ultraimg.com/images/RDQVt.png&quot; rel=&quot;nofollow&quot; target=&quot;_NEW&quot;&gt;\nhttp://ultraimg.com/images/RDQVt.png&lt;/a&gt; &lt;a href=&quot;\nhttp://ultraimg.com/images/WAyjw.png&quot; rel=&quot;nofollow&quot; target=&quot;_NEW&quot;&gt;\nhttp://ultraimg.com/images/WAyjw.png&lt;/a&gt; &lt;a href=&quot;\nhttp://ultraimg.com/images/70VO8.png&quot; rel=&quot;nofollow&quot; target=&quot;_NEW&quot;&gt;\nhttp://ultraimg.com/images/70VO8.png&lt;/a&gt; &lt;a href=&quot;\nhttp://ultraimg.com/images/lbqjN.png&quot; rel=&quot;nofollow&quot; target=&quot;_NEW&quot;&gt;\nhttp://ultraimg.com/images/lbqjN.png&lt;/a&gt; &lt;a href=&quot;\nhttp://ultraimg.com/images/U2LDn.png&quot; rel=&quot;nofollow&quot; target=&quot;_NEW&quot;&gt;\nhttp://ultraimg.com/images/U2LDn.png&lt;/a&gt; &lt;a href=&quot;\nhttp://ultraimg.com/images/f6D5i.png&quot; rel=&quot;nofollow&quot; target=&quot;_NEW&quot;&gt;\nhttp://ultraimg.com/images/f6D5i.png&lt;/a&gt; &lt;a href=&quot;\nhttp://ultraimg.com/images/z0wj.png&quot; rel=&quot;nofollow&quot; target=&quot;_NEW&quot;&gt;\nhttp://ultraimg.com/images/z0wj.png&lt;/a&gt; &lt;a href=&quot;\nhttp://ultraimg.com/images/VXYRv.png&quot; rel=&quot;nofollow&quot; target=&quot;_NEW&quot;&gt;\nhttp://ultraimg.com/images/VXYRv.png&lt;/a&gt; &lt;a href=&quot;\nhttp://ultraimg.com/images/j7XRv.png&quot; rel=&quot;nofollow&quot; target=&quot;_NEW&quot;&gt;\nhttp://ultraimg.com/images/j7XRv.png&lt;/a&gt; &lt;a href=&quot;\nhttp://ultraimg.com/images/bGBOY.png&quot; rel=&quot;nofollow&quot; target=&quot;_NEW&quot;&gt;\nhttp://ultraimg.com/images/bGBOY.png&lt;/a&gt;\n\n----------------------------------------------------------------------------------------------------\n\n\nEncoded using revolutionary 10bit encoding, which enables us to provide you more crispier \nand sharper images at small sizes, just make sure you follow our instructions without a fault.\nRecommend to you to use latest version of VLC player. Install K-Lite Codec Pack or shark007 codecs\nin case of any kind of problem in playback (For non-VLC Media Player users). Alternatively, install\nCore AVC codecs, the fastest decoder that there is coupled with Community Center Codec Pack and play\non Windows Media Player Classic. Check sample to be sure.\nEnjoy!\n\nEncoder Notes:Looking For Early Access To Anything You Can Provide DVDScr, R5, DVDR, BluRay, Direct\nAudio, Music Releases and Seedboxes. We require dedicated servers, so as to do more \nand fast releases of movies.\nIf You Got anything to offer please contact us at &quot;&lt;a class=&quot;__cf_email__&quot; href=&quot;/cdn-cgi/l/email-protection&quot; data-cfemail=&quot;2f5f5d486f475a5c47014c4042&quot;&gt;[email&amp;#160;protected]&lt;/a&gt;&lt;script cf-hash='f9e31' type=&quot;text/javascript&quot;&gt;\n/* &lt;![CDATA[ */!function(){try{var t=&quot;currentScript&quot;in document?document.currentScript:function(){for(var t=document.getElementsByTagName(&quot;script&quot;),e=t.length;e--;)if(t[e].getAttribute(&quot;cf-hash&quot;))return t[e]}();if(t&amp;&amp;t.previousSibling){var e,r,n,i,c=t.previousSibling,a=c.getAttribute(&quot;data-cfemail&quot;);if(a){for(e=&quot;&quot;,r=parseInt(a.substr(0,2),16),n=2;a.length-n;n+=2)i=parseInt(a.substr(n,2),16)^r,e+=String.fromCharCode(i);e=document.createTextNode(e),c.parentNode.replaceChild(e,c)}}}catch(u){}}();/* ]]&gt; */&lt;/script&gt;&quot;.\n\nFacebook Fan Page:  \nSearch P2PDL on FB and hit like!!!\n\nFor more of our team uploads visit @                                             &lt;a href=&quot; http://thepiratebay.se/user/vitamin_x&quot; rel=&quot;nofollow&quot; target=&quot;_NEW&quot;&gt; http://thepiratebay.se/user/vitamin_x&lt;/a&gt;","torrent":{"xt":"urn:btih:65f6a44247a3efb92c39ae8725486b6098decee9","amp;dn":"We+Are+What+We+Are+2013+BRRip+480p+x264+AAC+-+VYTO+%5BP2PDL%5D","amp;tr":["udp%3A%2F%2Ftracker.openbittorrent.com%3A80","udp%3A%2F%2Fopen.demonii.com%3A1337","udp%3A%2F%2Ftracker.coppersurfer.tk%3A6969","udp%3A%2F%2Fexodus.desync.com%3A6969"],"infoHash":"65f6a44247a3efb92c39ae8725486b6098decee9","infoHashBuffer":{"type":"Buffer","data":[101,246,164,66,71,163,239,185,44,57,174,135,37,72,107,96,152,222,206,233]},"announce":[],"urlList":[]}}